<svg width="751" height="607" viewBox="0 0 751 607" fill="none" xmlns="http://www.w3.org/2000/svg">
<path d="M240.399 437.625C239.767 437.625 239.135 437.608 238.503 437.576C239.133 437.608 239.764 437.622 240.394 437.622C243.807 437.622 247.219 437.171 250.553 436.271C256.056 434.782 261.352 432.073 266.1 428.149C268.318 426.318 270.417 424.221 272.364 421.861C272.766 421.377 273.156 420.88 273.539 420.382C281.184 410.348 284.729 397.732 284.24 385.312C284.221 384.836 284.196 384.36 284.168 383.883C285.034 397.38 281.131 411.229 272.364 421.861C266.252 429.276 258.626 434.089 250.552 436.275C247.22 437.174 243.81 437.625 240.399 437.625ZM215.112 428.476C213.456 427.139 211.86 425.654 210.34 424.022C192.69 405.076 191.844 373.39 208.45 353.25C209.048 352.525 209.66 351.825 210.286 351.149C209.66 351.825 209.049 352.525 208.451 353.25C191.843 373.394 192.691 405.076 210.341 424.022C211.861 425.654 213.456 427.139 215.112 428.476ZM271.489 352.216C271.48 352.208 271.476 352.201 271.467 352.194C271.473 352.201 271.483 352.208 271.489 352.216ZM271.439 352.159C271.124 351.8 270.8 351.444 270.473 351.092C270.392 351.003 270.308 350.915 270.224 350.829C269.941 350.527 269.651 350.229 269.361 349.937C269.735 350.314 270.106 350.698 270.473 351.092C270.8 351.444 271.124 351.8 271.439 352.159Z" fill="#698EBF"/>
<path d="M53.3701 605.332C53.3701 605.332 -39.3995 493.586 19.68 362.179C78.7598 230.771 158.037 296.899 154.245 143.924C150.453 -9.05145 336.66 -22.1185 395.915 22.2604C455.174 66.6398 460.395 95.2217 582.759 77.5953C705.118 59.9684 762.02 190.171 721.809 280.515C674.84 386.038 816.326 396.261 708.822 605.595L53.3701 605.332Z" fill="#EBF3FA"/>
<path d="M632.558 315.336V216.711C632.572 216.711 632.581 216.711 632.595 216.711C637.238 216.711 642.407 214.955 647.073 213.414C647.755 213.188 648.336 213.082 648.82 213.082C654.847 213.082 647.018 229.304 655.253 235.654C664.156 242.519 676.43 239.224 671.621 246.637C666.808 254.051 657.904 268.878 669.934 274.369C671.294 274.99 672.663 275.287 674.033 275.287C675.241 275.287 676.453 275.054 677.648 274.606C666.674 292.919 650.978 307.257 632.558 315.336ZM694.436 212.541C694.436 202.414 693.237 192.601 690.992 183.288C690.203 182.874 689.378 182.659 688.534 182.659C688.483 182.659 688.433 182.66 688.382 182.662C688.382 182.662 688.797 180.241 681.032 180.241C679.741 180.241 678.219 180.308 676.43 180.465C676.029 180.501 675.637 180.518 675.259 180.518C669.777 180.518 666.918 176.922 664.189 173.326C661.459 169.73 658.863 166.135 653.911 166.135C653.565 166.135 653.215 166.152 652.85 166.187C641.54 167.285 642.739 174.699 633.595 175.523C626.347 176.176 620.307 179.42 620.394 184.981H536.527C536.084 184.03 535.863 182.924 535.978 181.564C536.315 177.711 538.431 176.292 542.041 176.292C545.297 176.292 549.76 177.444 555.233 179.005C556.57 179.387 557.686 179.562 558.608 179.562C565.64 179.562 561.771 169.41 565.174 163.261C569.024 156.303 586.352 161.432 585.711 156.671C585.209 152.945 581.169 152.135 576.821 152.135C575.618 152.135 574.382 152.197 573.197 152.277C572.736 152.309 572.289 152.326 571.869 152.326C567.337 152.326 565.313 150.244 566.779 140.196C568.383 129.211 563.892 133.972 557.156 124.455C554.094 120.125 550.493 118.825 547.487 118.699C545.394 120.161 543.346 121.724 541.368 123.366C537.2 126.806 533.295 130.621 529.675 134.761C517.705 148.436 508.875 165.68 504.513 184.981C508.875 165.68 517.705 148.436 529.675 134.761C533.295 130.621 537.2 126.806 541.368 123.366C543.346 121.724 545.394 120.161 547.487 118.699C562.168 108.387 579.45 102.447 597.958 102.447C600.406 102.447 602.841 102.552 605.248 102.763C608.646 103.047 611.989 103.536 615.276 104.215C629.118 107.077 641.923 113.311 653.03 122.14H653.035C659.956 127.638 666.213 134.14 671.649 141.469C674.503 145.32 677.131 149.394 679.501 153.672C680.977 156.335 682.36 159.071 683.642 161.882C686.717 168.636 689.189 175.803 690.992 183.288C693.237 192.601 694.436 202.414 694.436 212.541ZM663.511 155.772C666.277 155.772 668.638 157.623 671.073 159.474C673.512 161.325 676.029 163.176 679.105 163.176C680.483 163.176 681.982 162.801 683.642 161.882C682.36 159.071 680.977 156.335 679.501 153.672C677.131 149.394 674.503 145.32 671.649 141.469C666.213 134.14 659.956 127.638 653.035 122.14H653.03C652.375 122.208 651.748 122.371 651.163 122.624C651.163 122.624 650.024 122.419 648.424 122.419C645.215 122.419 640.147 123.234 638.649 128.116C636.403 135.435 625.817 132.878 625.176 142.027C624.964 145.077 626.388 145.932 628.648 145.931C630.082 145.931 631.857 145.585 633.761 145.24C635.661 144.894 637.694 144.548 639.645 144.548C641.876 144.548 643.997 145 645.708 146.418C651.393 151.138 651.481 157.997 655.986 157.996C657.074 157.996 658.42 157.597 660.163 156.671C661.353 156.038 662.464 155.772 663.511 155.772ZM576.319 118.604C570.491 118.604 568.457 124.218 573.197 130.31C577.241 135.508 580.667 144.527 584.213 144.527C585.103 144.527 585.997 143.962 586.91 142.632C591.484 135.987 590.603 130.952 595.98 130.31C595.98 130.31 601.434 121.329 592.77 118.683C590.29 117.926 588.533 117.668 587.131 117.668C585.651 117.668 584.568 117.952 583.443 118.241C582.322 118.525 581.156 118.809 579.523 118.809C578.929 118.809 578.269 118.773 577.527 118.683C577.107 118.631 576.706 118.604 576.319 118.604Z" fill="#E3EDFC"/>
<path d="M536.523 184.984H504.514C508.873 165.682 517.704 148.439 529.673 134.763C533.29 130.624 537.198 126.813 541.363 123.367C543.345 121.727 545.389 120.164 547.486 118.7C550.49 118.826 554.09 120.128 557.154 124.457C563.889 133.975 568.381 129.218 566.778 140.2C565.306 150.245 567.335 152.331 571.863 152.331C572.286 152.331 572.732 152.313 573.194 152.281C574.378 152.2 575.614 152.137 576.818 152.137C581.168 152.137 585.207 152.948 585.704 156.673C586.348 161.434 569.021 156.304 565.172 163.263C561.769 169.412 565.638 179.565 558.607 179.565C557.679 179.565 556.57 179.389 555.227 179.006C549.756 177.448 545.291 176.295 542.038 176.295C538.43 176.295 536.314 177.714 535.978 181.565C535.86 182.925 536.081 184.033 536.523 184.984Z" fill="#D3E0FC"/>
<path d="M674.032 275.287C672.663 275.287 671.293 274.99 669.933 274.369C657.903 268.878 666.807 254.051 671.621 246.637C676.43 239.224 664.156 242.519 655.252 235.654C647.017 229.304 654.847 213.082 648.82 213.082C648.336 213.082 647.755 213.188 647.073 213.414C642.406 214.955 637.238 216.711 632.594 216.711C632.581 216.711 632.571 216.711 632.558 216.711V195.839C632.558 189.839 628.767 184.981 624.087 184.981H620.394C620.306 179.42 626.347 176.176 633.595 175.523C642.738 174.699 641.539 167.285 652.85 166.187C653.214 166.152 653.565 166.135 653.91 166.135C658.863 166.135 661.459 169.73 664.188 173.326C666.918 176.922 669.777 180.518 675.259 180.518C675.637 180.518 676.029 180.501 676.43 180.465C678.219 180.308 679.741 180.241 681.032 180.241C688.796 180.241 688.381 182.662 688.381 182.662C688.432 182.66 688.483 182.659 688.534 182.659C689.377 182.659 690.203 182.874 690.991 183.288C693.237 192.601 694.436 202.414 694.436 212.541C694.436 219.306 693.901 225.934 692.872 232.371C690.41 247.812 685.126 262.129 677.647 274.606C676.453 275.054 675.24 275.287 674.032 275.287Z" fill="#D3E0FC"/>
<path d="M679.1 163.177C676.028 163.177 673.515 161.326 671.074 159.475C668.638 157.623 666.275 155.772 663.508 155.772C662.462 155.772 661.353 156.039 660.163 156.671C658.418 157.597 657.072 157.996 655.986 157.997C651.482 157.997 651.396 151.139 645.711 146.419C643.997 144.998 641.875 144.547 639.644 144.547C637.694 144.547 635.663 144.895 633.758 145.242C631.859 145.584 630.082 145.932 628.646 145.932C626.387 145.932 624.96 145.076 625.173 142.027C625.814 132.874 636.403 135.436 638.648 128.114C640.148 123.234 645.215 122.42 648.424 122.42C650.024 122.42 651.164 122.623 651.164 122.623C651.746 122.374 652.373 122.208 653.028 122.14H653.037C659.954 127.637 666.212 134.14 671.647 141.472C674.501 145.32 677.128 149.396 679.5 153.673C680.977 156.336 682.359 159.071 683.64 161.883C681.982 162.802 680.486 163.177 679.1 163.177Z" fill="#D3E0FC"/>
<path d="M584.21 144.528C580.662 144.528 577.236 135.51 573.192 130.315C568.453 124.22 570.489 118.61 576.315 118.61C576.703 118.61 577.107 118.633 577.527 118.684C578.266 118.776 578.929 118.813 579.523 118.813C581.155 118.813 582.319 118.527 583.438 118.241C584.565 117.955 585.648 117.669 587.127 117.669C588.529 117.669 590.286 117.928 592.767 118.684C601.429 121.334 595.975 130.315 595.975 130.315C590.601 130.956 591.482 135.99 586.909 142.633C585.995 143.965 585.099 144.528 584.21 144.528Z" fill="#D3E0FC"/>
<path d="M632.557 195.841V538.52C632.557 544.513 628.765 549.375 624.086 549.375H190.785C186.109 549.375 182.315 544.513 182.315 538.52V195.841C182.315 189.841 186.109 184.983 190.785 184.983H624.086C628.765 184.983 632.557 189.841 632.557 195.841Z" fill="#AEC3FF"/>
<path d="M632.557 194.647V220.521H182.315V194.647C182.315 189.307 186.109 184.983 190.785 184.983H624.086C628.765 184.983 632.557 189.307 632.557 194.647Z" fill="#739AF0"/>
<path d="M196.089 202.752C196.089 200.267 197.854 198.252 200.032 198.252C202.209 198.252 203.975 200.267 203.975 202.752C203.975 205.236 202.209 207.248 200.032 207.248C197.854 207.248 196.089 205.236 196.089 202.752Z" fill="#DFEBFD"/>
<path d="M211.626 202.752C211.626 200.267 213.391 198.252 215.569 198.252C217.746 198.252 219.512 200.267 219.512 202.752C219.512 205.236 217.746 207.248 215.569 207.248C213.391 207.248 211.626 205.236 211.626 202.752Z" fill="#DFEBFD"/>
<path d="M227.555 202.752C227.555 200.267 229.32 198.252 231.498 198.252C233.676 198.252 235.441 200.267 235.441 202.752C235.441 205.236 233.676 207.248 231.498 207.248C229.32 207.248 227.555 205.236 227.555 202.752Z" fill="#DFEBFD"/>
<path d="M472.065 496.878H424.58V442.695H472.065V496.878Z" fill="#CDDBFC"/>
<path d="M428.15 490.688L442.173 461.832L452.49 477.884L457.637 471.461L468.551 490.688H428.15Z" fill="#739AF0"/>
<path d="M448.857 457.692C448.857 455.406 450.482 453.55 452.485 453.55C454.493 453.55 456.115 455.406 456.115 457.692C456.115 459.981 454.493 461.833 452.485 461.833C450.482 461.833 448.857 459.981 448.857 457.692Z" fill="#739AF0"/>
<path d="M542.977 421.815H424.578V343.511H542.977V421.815Z" fill="#CDDBFC"/>
<path d="M470.418 362.601V402.719L497.139 382.66L470.418 362.601Z" fill="#739AF0"/>
<path d="M597.148 285.208C597.148 294.044 594.057 302.076 589.072 307.902C584.086 313.729 577.211 317.337 569.648 317.337H249.245C232.892 317.337 219.512 302.879 219.512 285.208C219.512 276.372 222.854 268.34 228.247 262.518C233.634 256.692 241.068 253.081 249.245 253.081H569.648C584.773 253.081 597.148 267.537 597.148 285.208Z" fill="#EBF3FA"/>
<path d="M597.148 285.208C597.148 294.044 594.057 302.076 589.072 307.902C584.086 313.729 577.21 317.337 569.648 317.337H511.669V253.081H569.648C584.773 253.081 597.148 267.537 597.148 285.208Z" fill="#F99746"/>
<path d="M553.291 269.518C547.98 274.005 546.856 282.587 550.787 288.649C552.692 291.585 555.488 293.499 558.653 294.039C561.818 294.577 564.984 293.677 567.554 291.504C572.865 287.017 573.989 278.435 570.058 272.373C566.127 266.311 558.603 265.03 553.291 269.518ZM560.454 296.889C559.738 296.889 559.023 296.828 558.303 296.706C554.512 296.06 551.168 293.769 548.89 290.254C544.181 282.997 545.522 272.722 551.884 267.35V267.35C558.245 261.978 567.247 263.511 571.955 270.768C576.664 278.025 575.323 288.3 568.961 293.672C566.465 295.781 563.502 296.889 560.454 296.889Z" fill="#C6EEC5"/>
<path d="M534.803 303.83L533.394 301.662L549.134 288.367L550.544 290.534L534.803 303.83Z" fill="#C6EEC5"/>
<path d="M528.625 307.368C527.93 306.299 528.133 304.791 529.066 304L538.336 296.169C539.273 295.378 540.597 295.603 541.291 296.672C541.982 297.741 541.788 299.249 540.847 300.04L531.58 307.871C530.643 308.662 529.324 308.437 528.625 307.368Z" fill="#C6EEC5"/>
<path d="M314.28 240.932C313.673 241.721 313.598 242.606 313.897 243.548L313.9 243.562C314.454 245.307 316.283 247.255 318.405 249.203C318.676 249.452 318.919 249.68 319.127 249.889C319.183 249.946 319.24 249.999 319.289 250.056C319.333 250.099 319.373 250.145 319.414 250.184C321.395 252.267 320.648 252.747 324.205 256.974C328.261 261.79 331.053 261.879 331.847 261.442C332.52 261.068 331.155 258.513 329.641 255.641C329.57 255.502 329.498 255.363 329.423 255.221C329.221 254.841 329.021 254.453 328.822 254.069C327.05 250.614 327.504 248.994 327.928 243.85C328.271 239.673 333.632 220.51 333.632 220.51L325.856 218.978C325.856 218.978 323.511 234.238 320.931 236.588C319.551 237.839 318.009 237.853 316.682 238.785C316.588 238.849 316.498 238.913 316.408 238.98C315.654 239.552 314.884 240.139 314.28 240.932Z" fill="#FFB27D"/>
<path d="M314.28 240.932C313.673 241.721 313.598 242.606 313.897 243.548L313.9 243.562C314.579 245.304 316.361 247.245 318.411 249.185C318.682 249.438 318.916 249.672 319.127 249.889C319.183 249.946 319.24 249.999 319.289 250.056C319.333 250.099 319.373 250.145 319.414 250.184C321.395 252.267 320.648 252.747 324.205 256.974C328.261 261.79 331.053 261.879 331.847 261.442C332.52 261.068 331.155 258.513 329.641 255.641C328.853 255.31 325.187 253.607 322.414 249.559C320.062 246.132 318.464 241.76 316.863 239.08C316.688 239.041 316.582 239.019 316.408 238.98C315.654 239.552 314.884 240.139 314.28 240.932Z" fill="#233862"/>
<path d="M376.962 235.415C377.442 238.156 380.863 237.697 384.685 236.634C388.507 235.571 387.598 236.837 393.037 236.151C398.476 235.468 400.124 233.154 400.289 232.234C400.439 231.413 397.75 231.125 394.869 230.744C394.507 230.698 394.143 230.645 393.778 230.595C390.523 230.126 388.143 227.73 385.187 225.761C382.386 223.895 378.211 216.298 378.211 216.298L370.75 216.97C370.75 216.97 374.663 223.756 376.177 226.706C377.065 228.441 377.018 230.734 376.906 232.504C376.85 233.467 376.794 234.452 376.962 235.415Z" fill="#FFB27D"/>
<path d="M384.685 236.634C388.507 235.571 387.598 236.837 393.037 236.151C398.476 235.468 400.124 233.154 400.289 232.234C400.439 231.413 397.75 231.125 394.869 230.744L394.844 230.805C394.844 230.805 391.579 233.442 387.052 233.567C383.364 233.666 379.454 232.458 376.906 232.504C376.85 233.467 376.794 234.452 376.962 235.415C377.442 238.156 380.862 237.697 384.685 236.634Z" fill="#233862"/>
<path d="M348.396 180.987L341.417 202.393L332.305 230.343C332.305 230.343 329.835 230.613 327.47 229.834C325.293 229.116 322.794 227.236 322.794 227.236C322.794 227.236 325.33 197.224 330.053 179.995C331.262 175.573 332.617 171.997 334.112 169.985C341.424 160.132 348.396 180.987 348.396 180.987Z" fill="#F4904D"/>
<path d="M341.318 146.984C337.349 145.523 326.993 146.955 315.76 149.273C312.657 149.913 309.529 148.292 307.894 145.217L279.626 142.686C279.626 142.686 270.292 166.285 275.392 181.328C276.143 183.536 277.791 184.918 280.333 184.965C280.333 184.965 297.414 185 302.878 185C316.934 185.007 332.632 173.988 334.663 173.522C337.987 172.765 339.314 180.351 342.635 188.313C345.956 196.279 373.86 223.589 373.86 223.589C373.86 223.589 378.149 223.639 379.922 222.881C381.829 222.067 382.526 221.008 382.526 221.008C382.526 221.008 351.617 150.78 341.318 146.984Z" fill="#FFA561"/>
<path d="M304.92 50.4938C302.825 49.0678 300.777 48.8504 299.52 48.8886C298.648 48.9191 297.776 48.8504 296.914 48.7094C286.127 46.8982 279.624 64.7768 279.24 70.1797C278.541 80.1008 273.939 81.6107 267.465 87.8181C254.48 100.271 258.284 114.745 265.378 120.128C269.636 123.354 277.145 120.132 277.145 120.132C277.252 120.216 297.672 107.115 307.744 100.793C322.831 98.3492 310.982 54.6155 304.92 50.4938Z" fill="#233862"/>
<path d="M299.304 95.411C299.351 95.4436 294.353 97.3872 291.013 95.6975C287.87 94.1129 285.489 88.2096 285.534 88.206C286.964 88.1298 288.534 86.7048 289.748 77.3459L290.358 77.5961L300.594 81.8023C300.594 81.8023 299.85 85.5517 299.37 89.1198C298.964 92.1149 298.748 94.9868 299.304 95.411Z" fill="#FFB27D"/>
<path d="M300.595 81.8029C300.595 81.8029 300.182 83.8254 299.585 87.6022C293.705 86.3916 291.183 81.223 290.357 77.5948L300.595 81.8029Z" fill="#ED975D"/>
<path d="M302.12 85.522C302.12 85.522 288.108 83.3711 289.418 73.4387C290.727 63.5064 289.799 56.5394 298.797 57.4929C307.798 58.4463 309.032 62.5341 309.301 65.9688C309.571 69.4072 305.794 85.826 302.12 85.522Z" fill="#FFB27D"/>
<path d="M308.791 60.5226C308.791 60.5226 299.823 69.3387 293.723 70.0449C287.623 70.7549 285.315 68.5199 285.315 68.5199C285.315 68.5199 288.91 65.1166 291.076 59.6211C291.715 58.0021 293.065 56.8903 294.615 56.7363C298.971 56.308 307.224 56.1165 308.791 60.5226Z" fill="#233862"/>
<path d="M303.189 59.7329C303.189 59.7329 306.187 63.0443 307.13 65.4978C308.041 67.8684 308.311 73.5317 307.586 75.782C307.586 75.782 312.262 65.415 309.617 60.3764C306.814 55.0329 303.189 59.7329 303.189 59.7329Z" fill="#233862"/>
<path d="M311.092 118.959C310.657 151.312 310.967 144.552 307.862 147.62C307.116 148.361 305.017 148.8 302.25 149.006C293.556 149.662 278.275 148.023 277.694 146.188C275.689 139.845 277.107 137.874 275.433 128.16C275.264 127.127 275.046 126.008 274.793 124.793C273.4 118.122 272.041 115.852 276.994 105.137C281.488 95.43 286.151 87.5548 286.57 87.8399C298.409 95.8648 299.368 89.1227 299.368 89.1227C299.368 89.1227 311.304 103.181 311.092 118.959Z" fill="#AFCDFB"/>
<path d="M341.417 202.393L332.305 230.343C332.305 230.343 329.835 230.613 327.47 229.834C325.293 229.116 322.794 227.236 322.794 227.236C322.794 227.236 325.33 197.224 330.053 179.995L341.417 202.393Z" fill="#FFA561"/>
<path d="M299.37 89.1183C299.37 89.1183 311.554 91.4786 312.981 97.4681C314.411 103.454 319.112 139.789 319.112 139.789C319.112 139.789 315.672 143.617 312.813 140.351C309.953 137.084 303.819 106.351 303.819 106.351L299.37 89.1183Z" fill="#AFCDFB"/>
<path d="M302.252 149.006C293.557 149.66 278.277 148.018 277.694 146.184C275.691 139.843 277.109 137.87 275.436 128.159L279.635 114.687C279.635 114.687 278.937 129.691 282.813 133.636C286.685 137.585 298.688 141.261 300.573 144.56C301.482 146.141 302.081 147.73 302.252 149.006Z" fill="#95B3EF"/>
<path d="M292.292 142.69C292.292 142.69 300.872 140.514 302.255 141.382C303.638 142.252 307.021 145.416 307.445 146.518C307.865 147.62 304.364 145.683 303.224 145.331C302.485 145.107 300.541 145.875 299.579 146.241C295.529 147.78 293.049 146.987 293.049 146.987L292.292 142.69Z" fill="#FFB27D"/>
<path d="M286.568 87.8271C286.568 87.8271 275.046 88.6321 271.06 94.9756C265.447 103.905 254.299 141.966 260.681 147.045C267.863 152.765 293.385 148.555 293.385 148.555C293.385 148.555 294.234 144.025 293.054 141.834C291.874 139.644 272.674 136.096 271.784 135.085C270.901 134.073 282.869 115.374 282.869 112.339C282.872 109.305 286.568 87.8271 286.568 87.8271Z" fill="#AFCDFB"/>
<path d="M302.67 144.108C302.67 144.108 304.467 146.753 305.056 147.069C305.645 147.385 306.025 147.307 306.025 147.307L304.816 144.819L302.67 144.108Z" fill="#FFB27D"/>
<path d="M302.255 141.382L307.479 144.282C307.479 144.282 307.258 144.694 306.613 144.662C305.972 144.627 304.349 143.952 304.349 143.952L302.255 141.382Z" fill="#FFB27D"/>
<path d="M346.875 148.206L292.292 148.185V149.561L346.389 149.582L346.875 148.206Z" fill="#233862"/>
<path d="M305.056 149.564L346.39 149.582L358.835 114.306L317.564 114.292L305.056 149.564Z" fill="#233862"/>
<path d="M335.96 131.937C336.271 130.697 335.645 129.691 334.558 129.691C333.471 129.691 332.337 130.697 332.025 131.937C331.714 133.178 332.34 134.18 333.427 134.184C334.514 134.184 335.648 133.178 335.96 131.937Z" fill="#C6EEC5"/>
<path d="M307.72 358.596H233.088C231.535 358.596 230.275 357.16 230.275 355.39V354.036C230.275 352.265 231.535 350.829 233.088 350.829H307.72C309.271 350.829 310.533 352.265 310.533 354.036V355.39C310.533 357.16 309.271 358.596 307.72 358.596Z" fill="#F99746"/>
<path d="M269.423 385.312H232.598C231.316 385.312 230.275 384.125 230.275 382.661C230.275 381.196 231.316 380.009 232.598 380.009H269.423C270.704 380.009 271.744 381.196 271.744 382.661C271.744 384.125 270.704 385.312 269.423 385.312Z" fill="#739AF0"/>
<path d="M297.62 374.194H232.437C231.243 374.194 230.275 373.088 230.275 371.727V371.357C230.275 369.996 231.243 368.89 232.437 368.89H297.62C298.813 368.89 299.782 369.996 299.782 371.357V371.727C299.782 373.088 298.813 374.194 297.62 374.194Z" fill="#739AF0"/>
<path d="M368.931 374.194H308.205C307.049 374.194 306.115 373.127 306.115 371.809V371.275C306.115 369.96 307.049 368.89 308.205 368.89H368.931C370.084 368.89 371.018 369.96 371.018 371.275V371.809C371.018 373.127 370.084 374.194 368.931 374.194Z" fill="#739AF0"/>
<path d="M315.352 385.312H278.529C277.246 385.312 276.205 384.125 276.205 382.661C276.205 381.196 277.246 380.009 278.529 380.009H315.352C316.635 380.009 317.676 381.196 317.676 382.661C317.676 384.125 316.635 385.312 315.352 385.312Z" fill="#739AF0"/>
<path d="M398.598 358.596H323.965C322.411 358.596 321.152 357.16 321.152 355.39V354.036C321.152 352.265 322.411 350.829 323.965 350.829H398.598C400.149 350.829 401.408 352.265 401.408 354.036V355.39C401.408 357.16 400.149 358.596 398.598 358.596Z" fill="#F99746"/>
<path d="M307.72 497.705H233.088C231.535 497.705 230.275 496.266 230.275 494.496V493.145C230.275 491.371 231.535 489.935 233.088 489.935H307.72C309.271 489.935 310.533 491.371 310.533 493.145V494.496C310.533 496.266 309.271 497.705 307.72 497.705Z" fill="#F99746"/>
<path d="M269.423 524.418H232.599C231.316 524.418 230.275 523.231 230.275 521.77C230.275 520.306 231.316 519.118 232.599 519.118H269.423C270.704 519.118 271.744 520.306 271.744 521.77C271.744 523.231 270.704 524.418 269.423 524.418Z" fill="#739AF0"/>
<path d="M297.62 513.299H232.437C231.243 513.299 230.275 512.194 230.275 510.833V510.466C230.275 509.101 231.243 507.999 232.437 507.999H297.62C298.813 507.999 299.782 509.101 299.782 510.466V510.833C299.782 512.194 298.813 513.299 297.62 513.299Z" fill="#739AF0"/>
<path d="M368.931 513.299H308.205C307.049 513.299 306.115 512.233 306.115 510.914V510.381C306.115 509.066 307.049 507.999 308.205 507.999H368.931C370.084 507.999 371.018 509.066 371.018 510.381V510.914C371.018 512.233 370.084 513.299 368.931 513.299Z" fill="#739AF0"/>
<path d="M315.352 524.418H278.529C277.246 524.418 276.205 523.231 276.205 521.77C276.205 520.306 277.246 519.118 278.529 519.118H315.352C316.635 519.118 317.676 520.306 317.676 521.77C317.676 523.231 316.635 524.418 315.352 524.418Z" fill="#739AF0"/>
<path d="M398.598 497.705H323.965C322.411 497.705 321.152 496.266 321.152 494.496V493.145C321.152 491.371 322.411 489.935 323.965 489.935H398.598C400.149 489.935 401.408 491.371 401.408 493.145V494.496C401.408 496.266 400.149 497.705 398.598 497.705Z" fill="#F99746"/>
<path d="M307.72 428.149H233.088C231.535 428.149 230.275 426.713 230.275 424.943V423.592C230.275 421.818 231.535 420.382 233.088 420.382H307.72C309.271 420.382 310.533 421.818 310.533 423.592V424.943C310.533 426.713 309.271 428.149 307.72 428.149Z" fill="#F99746"/>
<path d="M269.423 454.865H232.599C231.316 454.865 230.275 453.678 230.275 452.214C230.275 450.753 231.316 449.566 232.599 449.566H269.423C270.704 449.566 271.744 450.753 271.744 452.214C271.744 453.678 270.704 454.865 269.423 454.865Z" fill="#739AF0"/>
<path d="M297.62 443.746H232.437C231.243 443.746 230.275 442.641 230.275 441.28V440.91C230.275 439.549 231.243 438.443 232.437 438.443H297.62C298.813 438.443 299.782 439.549 299.782 440.91V441.28C299.782 442.641 298.813 443.746 297.62 443.746Z" fill="#739AF0"/>
<path d="M368.931 443.746H308.205C307.049 443.746 306.115 442.68 306.115 441.361V440.828C306.115 439.513 307.049 438.443 308.205 438.443H368.931C370.084 438.443 371.018 439.513 371.018 440.828V441.361C371.018 442.68 370.084 443.746 368.931 443.746Z" fill="#739AF0"/>
<path d="M315.352 454.865H278.529C277.246 454.865 276.205 453.678 276.205 452.214C276.205 450.753 277.246 449.566 278.529 449.566H315.352C316.635 449.566 317.676 450.753 317.676 452.214C317.676 453.678 316.635 454.865 315.352 454.865Z" fill="#739AF0"/>
<path d="M398.598 428.153H323.965C322.411 428.153 321.152 426.713 321.152 424.943V423.592C321.152 421.818 322.411 420.382 323.965 420.382H398.598C400.149 420.382 401.408 421.818 401.408 423.592V424.943C401.408 426.713 400.149 428.153 398.598 428.153Z" fill="#F99746"/>
<path d="M188.997 390.74C188.997 390.74 189.839 388.579 190.384 387.555C190.929 386.535 193.257 383.539 193.654 384.218C194.05 384.893 195.636 389.461 194.793 390.74C193.951 392.016 194.848 394.242 190.659 395.589L188.997 390.74Z" fill="#FFB27D"/>
<path d="M142.445 377.101C142.445 377.101 163.889 397.526 172.25 395.635C178.788 394.156 188.823 390.232 188.823 390.232L190.829 396.087C190.829 396.087 181.831 410.017 172.448 410.106C157.783 410.252 146.948 402.862 146.948 402.862L142.445 377.101Z" fill="#95B3EF"/>
<path d="M104.838 592.531C104.838 592.531 105.46 603.991 107.403 604.155C107.661 604.176 117.257 604.176 117.257 604.176L129.505 604.095C129.505 604.095 129.425 600.728 125.845 600.017C122.264 599.303 116.272 596.434 114.103 591.035C111.821 585.355 104.838 592.531 104.838 592.531Z" fill="#1C4B8E"/>
<path d="M104.132 593.328C104.132 593.328 107.855 594.75 110.762 594.75C114.005 594.75 116.952 593.74 116.952 593.74C116.952 593.74 117.653 586.005 121.511 568.961C123.534 560.028 126.422 548.543 130.531 534.272C141.892 494.823 145.348 471.746 145.663 469.564C145.68 469.446 145.686 469.39 145.686 469.39L145.649 469.372L110.72 451.872C110.72 451.872 115.037 506.237 109.529 527.106C108.757 530.02 108.096 533.419 107.529 537.101C104.051 559.769 104.132 593.328 104.132 593.328Z" fill="#FFA561"/>
<path d="M121.511 568.961C123.533 560.028 126.422 548.543 130.531 534.272C141.892 494.823 145.348 471.746 145.663 469.564C145.659 469.496 145.656 469.436 145.649 469.372L110.719 451.872C110.719 451.872 115.037 506.236 109.529 527.106C108.757 530.02 121.511 568.961 121.511 568.961Z" fill="#F4904D"/>
<path d="M132.12 592.531C132.12 592.531 132.742 603.991 134.685 604.155C134.943 604.176 144.538 604.176 144.538 604.176L156.787 604.095C156.787 604.095 156.707 600.728 153.127 600.017C149.546 599.303 143.554 596.434 141.385 591.035C139.103 585.355 132.12 592.531 132.12 592.531Z" fill="#1C4B8E"/>
<path d="M151.923 453.152C151.923 453.152 152.377 488.382 147.035 531.638C141.693 574.894 143.504 593.253 143.504 593.253C143.504 593.253 139.833 594.611 138.352 594.75C134.579 595.102 130.709 593.74 130.709 593.74C130.709 593.74 123.063 550.47 125.255 528.819C127.448 507.168 114.785 454.524 114.785 454.524L151.923 453.152Z" fill="#FFA561"/>
<path d="M127.155 370.71L133.973 375.811L140.184 373.81C141.319 371.961 141.62 368.396 141.636 365.311C141.653 362.25 141.393 359.655 141.393 359.655L132.194 355.02L128.761 353.296C128.771 353.357 129.028 356.51 129.065 356.972C129.706 365.151 127.155 370.71 127.155 370.71Z" fill="#FFB27D"/>
<path d="M152.08 462.945C143.593 472.297 111.475 470.722 109.495 460.421C107.519 450.12 111.654 372.733 126.151 367.87C129.159 366.86 145.242 372.793 145.242 372.793C145.242 372.793 147.766 380.325 149.421 389.916C149.742 391.782 150.68 411.56 151.381 430.061C151.708 438.713 151.986 447.091 152.127 453.223C152.256 458.967 152.262 462.742 152.08 462.945Z" fill="#AFCDFB"/>
<path d="M129.753 357.117C131.62 360.718 138.168 363.868 141.637 365.311C141.654 362.25 141.393 359.655 141.393 359.655L132.194 355.02C130.161 354.992 128.922 355.507 129.753 357.117Z" fill="#FCA56B"/>
<path d="M144.863 359.016C144.863 359.016 130.041 364.291 127.303 353.709C124.566 343.126 120.81 336.678 130.157 332.864C139.505 329.047 142.397 332.463 144.063 335.744C145.73 339.021 148.648 357.37 144.863 359.016Z" fill="#FFB27D"/>
<path d="M143.481 334.723C143.481 334.723 142.536 347.036 140.304 346.503C138.072 345.967 135.615 344.826 135.942 348.537C136.269 352.248 133.772 358.614 130.553 358.596C123.651 358.564 116.151 338.356 118.04 334.521C123.493 323.466 151.362 321.234 143.481 334.723Z" fill="#163560"/>
<path d="M141.301 368.137C141.11 368.044 130.267 362.496 129 362.972C127.731 363.452 126.151 367.87 126.151 367.87L145.243 372.797C145.243 372.797 143.74 369.31 141.301 368.137Z" fill="#95B3EF"/>
<path d="M208.804 428.071L148.024 493.369C146.832 494.648 145.33 495.054 144.685 494.275L142.633 491.787C141.989 491.005 142.436 489.32 143.627 488.04L204.408 422.742C205.599 421.463 207.102 421.058 207.746 421.836L209.798 424.324C210.443 425.106 209.996 426.791 208.804 428.071Z" fill="#1F4D84"/>
<path d="M174.696 464.715L148.024 493.369C146.832 494.648 145.33 495.054 144.685 494.275L142.633 491.787C141.989 491.005 142.436 489.32 143.627 488.04L170.299 459.387L174.696 464.715Z" fill="#739AF0"/>
<path d="M208.451 353.25C218.942 340.525 233.891 335.452 247.928 338.228C256.109 339.842 263.975 344.118 270.473 351.092C288.124 370.038 288.968 401.724 272.364 421.861C266.249 429.276 258.626 434.089 250.553 436.271C236.686 440.018 221.493 435.998 210.341 424.022C192.691 405.076 191.843 373.394 208.451 353.25ZM194.835 403.42C197.169 412.192 201.489 420.411 207.763 427.147C226.926 447.717 257.077 446.665 275.105 424.804C292.894 403.224 292.233 369.445 273.797 348.793C273.551 348.515 273.302 348.238 273.049 347.968C253.889 327.401 223.741 328.443 205.713 350.307C193.586 365.016 190.03 385.394 194.835 403.42Z" fill="#1F4D84"/>
<path d="M240.394 437.622C239.763 437.622 239.133 437.608 238.502 437.576C230.291 437.174 222.148 434.153 215.112 428.476C213.456 427.139 211.861 425.654 210.341 424.022C192.691 405.076 191.843 373.394 208.451 353.25C209.048 352.525 209.66 351.825 210.286 351.149C218.696 342.074 229.542 337.492 240.41 337.492C242.925 337.492 245.441 337.738 247.928 338.228C255.648 339.753 263.09 343.646 269.361 349.937C269.651 350.229 269.94 350.527 270.224 350.829H233.088C231.534 350.829 230.275 352.265 230.275 354.036V355.39C230.275 357.16 231.534 358.596 233.088 358.596H276.212C278.227 361.838 279.869 365.297 281.134 368.89H232.437C231.243 368.89 230.275 369.996 230.275 371.357V371.727C230.275 373.088 231.243 374.194 232.437 374.194H282.701C283.162 376.11 283.526 378.05 283.785 380.009H278.529C277.246 380.009 276.205 381.196 276.205 382.661C276.205 384.125 277.246 385.312 278.529 385.312H284.24C284.729 397.732 281.184 410.348 273.539 420.382H233.088C231.534 420.382 230.275 421.818 230.275 423.592V424.943C230.275 426.713 231.534 428.149 233.088 428.149H266.099C261.352 432.073 256.056 434.782 250.553 436.271C247.219 437.171 243.807 437.622 240.394 437.622ZM232.598 380.009C231.315 380.009 230.275 381.196 230.275 382.661C230.275 384.125 231.315 385.312 232.598 385.312H269.423C270.704 385.312 271.744 384.125 271.744 382.661C271.744 381.196 270.704 380.009 269.423 380.009H232.598Z" fill="#B1C9FC"/>
<path d="M276.212 358.596H233.088C231.535 358.596 230.275 357.16 230.275 355.39V354.036C230.275 352.265 231.535 350.829 233.088 350.829H270.224C270.308 350.915 270.392 351.003 270.473 351.092C270.8 351.444 271.124 351.8 271.439 352.159C271.448 352.173 271.458 352.184 271.467 352.194C271.476 352.201 271.48 352.208 271.489 352.216C273.24 354.22 274.816 356.357 276.212 358.596Z" fill="#D6B3A0"/>
<path d="M269.423 385.312H232.598C231.316 385.312 230.275 384.125 230.275 382.661C230.275 381.196 231.316 380.009 232.598 380.009H269.423C270.704 380.009 271.744 381.196 271.744 382.661C271.744 384.125 270.704 385.312 269.423 385.312Z" fill="#93B5F5"/>
<path d="M282.701 374.194H232.437C231.243 374.194 230.275 373.088 230.275 371.727V371.357C230.275 369.996 231.243 368.89 232.437 368.89H281.134C281.744 370.628 282.265 372.399 282.701 374.194Z" fill="#93B5F5"/>
<path d="M284.239 385.312H278.529C277.246 385.312 276.205 384.125 276.205 382.661C276.205 381.196 277.246 380.009 278.529 380.009H283.785C283.956 381.296 284.084 382.59 284.168 383.884C284.196 384.36 284.221 384.836 284.239 385.312Z" fill="#93B5F5"/>
<path d="M266.099 428.149H233.088C231.535 428.149 230.275 426.713 230.275 424.943V423.592C230.275 421.818 231.535 420.382 233.088 420.382H273.539C273.156 420.88 272.766 421.377 272.364 421.861C270.417 424.221 268.318 426.318 266.099 428.149Z" fill="#D6B3A0"/>
<path d="M570.397 497.645C570.397 497.645 565.565 506.077 568.362 516.31L569.608 515.923C569.608 515.923 568.366 504.648 570.892 498.964C573.414 493.28 570.397 497.645 570.397 497.645Z" fill="#82B378"/>
<path d="M152.127 453.223C118.636 425.995 121.422 389.656 121.422 389.656C133.662 397.537 145.808 414.954 151.381 430.061C151.708 438.713 151.986 447.091 152.127 453.223Z" fill="#95B3EF"/>
<path d="M185.181 440.825C187.543 440.203 189.129 438.162 189.458 437.807C189.458 437.807 190.466 437.885 189.293 440.338C189.195 440.544 188.977 441.07 188.813 441.443C188.746 441.596 188.839 441.77 188.988 441.785C190.351 441.902 191.721 441.287 194.347 441.913C194.709 441.998 194.815 442.99 194.801 443.409C194.777 444.124 194.822 444.927 194.095 446.022C193.672 446.658 192.491 447.344 189.863 448.549C188.862 449.008 185.999 448.663 183.315 447.611L181.171 446.477L181.836 441.93L182.374 442.058C183.23 442.264 184.289 441.074 185.181 440.825Z" fill="#FFB27D"/>
<path d="M131.815 372.797C131.815 372.797 101.723 379.334 140.668 429.056C146.897 437.007 180.549 447.362 180.549 447.362C180.549 447.362 183.962 444.049 182.241 441.365C182.241 441.365 159.071 422.167 153.973 419.117C151.68 417.741 145.072 388.473 141.334 381.424C137.595 374.375 131.815 372.797 131.815 372.797Z" fill="#AFCDFB"/>
<path d="M189.813 391.341C189.813 391.341 190.797 389.194 190.989 388.064C191.181 386.933 192.421 383.631 192.931 383.048C193.136 382.814 193.81 383.116 193.889 384.118C193.924 384.552 193.737 385.344 193.406 386.29C192.868 387.826 192.956 389.909 192.769 390.605C192.303 392.333 189.813 391.341 189.813 391.341Z" fill="#FFB27D"/>
<path d="M592.162 325.805L575.125 330.326L566.7 347.819L560.267 307.959L592.162 325.805Z" fill="#233862"/>
<path d="M585.078 342.874L582.596 345.021L571.714 328.634L574.196 326.487L585.078 342.874Z" fill="#233862"/>
<path d="M535.989 510.036C535.989 510.036 543.033 500.598 536.383 494.648C536.383 494.648 531.527 491.317 527.58 491.602C527.58 491.602 533.206 502.294 531.398 503.367C529.586 504.437 525.879 490.937 525.879 490.937C525.879 490.937 514.851 489.757 511.309 491.716C511.309 491.716 520.761 500.484 518.776 501.014C516.791 501.544 506.585 492.942 506.585 492.942C506.585 492.942 496.327 494.972 496.894 502.116C497.461 509.258 501.003 511.451 502.557 511.255C504.11 511.059 513.19 507.064 513.393 508.518C513.595 509.968 508.135 514.739 504.306 514.973C504.306 514.973 511.566 524.052 516.368 521.407C521.166 518.763 521.567 514.597 524.56 513.021C527.554 511.451 530.109 511.443 528.876 513.043C527.646 514.639 522.226 516.206 520.517 519.676C518.816 523.142 517.285 525.48 522.259 524.606C527.23 523.735 535.305 519.552 535.647 514.796C535.989 510.036 535.989 510.036 535.989 510.036Z" fill="#82B378"/>
<path d="M501.936 502.291C501.936 502.291 529.808 500.961 535.989 510.036C535.989 510.036 537.36 514.686 541.559 518.905L542.221 520.935C542.221 520.935 537.375 515.141 535.647 514.796C535.647 514.796 538.316 503.517 501.936 502.291Z" fill="#82B378"/>
<path d="M541.558 518.905C541.558 518.905 547.561 523.931 547.999 532.953L546.912 533.067C546.912 533.067 544.977 523.747 541.514 520.111C538.05 516.477 541.558 518.905 541.558 518.905Z" fill="#82B378"/>
<path d="M573.362 485.147C573.362 485.147 562.094 478.002 567.313 468.231C567.313 468.231 571.5 462.227 575.992 460.67C575.992 460.67 573.63 475.223 576.034 475.557C578.433 475.887 577.64 459.124 577.64 459.124C577.64 459.124 589.465 452.58 594.115 453.078C594.115 453.078 586.806 467.303 589.205 466.955C591.604 466.603 599.808 452.199 599.808 452.199C599.808 452.199 611.948 449.59 613.917 457.795C615.891 466.002 612.753 470.118 610.957 470.637C609.161 471.16 597.612 471.028 597.917 472.738C598.223 474.448 606.027 477.156 610.371 475.603C610.371 475.603 605.61 489.136 599.313 488.474C593.012 487.813 591.051 483.37 587.149 483.043C583.251 482.716 580.406 483.924 582.359 485.115C584.312 486.302 590.906 485.474 594.061 488.517C597.22 491.56 599.775 493.433 593.933 494.823C588.086 496.212 577.59 495.395 575.472 490.273C573.362 485.147 573.362 485.147 573.362 485.147Z" fill="#A8D29F"/>
<path d="M608.381 460.382C608.381 460.382 576.922 472.13 573.361 485.147C573.361 485.147 573.529 490.962 570.397 497.645L570.405 500.212C570.405 500.212 573.68 491.474 575.472 490.273C575.472 490.273 568.397 479.005 608.381 460.382Z" fill="#82B378"/>
<path d="M555.442 475.301C555.442 475.301 570.241 465.774 563.286 452.946C563.286 452.946 557.732 445.069 551.797 443.064C551.797 443.064 555.011 462.22 551.851 462.682C548.691 463.147 549.614 441.042 549.614 441.042C549.614 441.042 533.976 432.528 527.852 433.225C527.852 433.225 537.59 451.908 534.426 451.471C531.259 451.03 520.335 432.126 520.335 432.126C520.335 432.126 504.32 428.8 501.78 439.634C499.239 450.469 503.408 455.868 505.779 456.536C508.153 457.204 523.372 456.924 522.983 459.18C522.591 461.438 512.326 465.081 506.587 463.073C506.587 463.073 512.961 480.867 521.259 479.936C529.557 479.001 532.113 473.129 537.252 472.66C542.386 472.191 546.146 473.754 543.583 475.343C541.02 476.932 532.317 475.902 528.18 479.943C524.038 483.985 520.686 486.476 528.399 488.254C536.112 490.031 549.945 488.851 552.697 482.076C555.442 475.301 555.442 475.301 555.442 475.301Z" fill="#A8D29F"/>
<path d="M509.101 442.992C509.101 442.992 550.651 458.177 555.444 475.3C555.444 475.3 555.266 482.967 559.44 491.751L559.451 495.131C559.451 495.131 555.072 483.646 552.698 482.075C552.698 482.075 561.943 467.156 509.101 442.992Z" fill="#82B378"/>
<path d="M559.441 491.751C559.441 491.751 565.874 502.817 562.262 516.332L560.614 515.834C560.614 515.834 562.174 500.958 558.802 493.489C555.431 486.021 559.441 491.751 559.441 491.751Z" fill="#82B378"/>
<path d="M674.128 605.033H522.198C501.017 577.385 506.609 540.037 534.725 508.536C538.264 504.577 545.044 501.768 552.354 499.785C565.836 496.134 581.12 495.292 581.238 495.221C581.28 495.2 589.317 487.77 594.145 481.092C609.163 460.35 621.936 462.131 621.936 462.131C637.238 458.733 650.295 457.738 659.974 463.883V463.891C668.939 469.592 675.015 481.433 677.282 503.194C677.712 507.307 678.009 511.778 678.16 516.626C678.718 534.286 681.767 549.997 683.578 563.299H683.582C686.207 582.568 688.063 597.22 674.128 605.033Z" fill="#FFA561"/>
<path d="M652.392 486.067C643.105 491.84 642.079 510.854 627.545 515.766C613.008 520.679 588.335 520.231 574.337 537.552C560.835 554.262 545.945 511.746 552.356 499.785C565.836 496.134 581.119 495.291 581.24 495.221C581.28 495.199 589.317 487.77 594.148 481.091C609.163 460.35 621.937 462.13 621.937 462.13C637.243 458.732 650.298 457.737 659.978 463.883V463.89C670.641 476.459 661.679 480.295 652.392 486.067Z" fill="#F4904D"/>
<path d="M551.875 568.278C551.875 568.278 554.549 576.372 553.991 579.383C553.437 582.39 554.361 588.212 553.292 590.825C552.219 593.434 550.305 597.227 552.158 598.18C552.857 598.542 560.999 591.291 561.461 589.158C561.923 587.025 562.271 580.734 563.821 577.318C565.376 573.898 564.058 571.15 561.797 569.903C559.536 568.655 556.37 561.791 556.37 561.791L551.875 568.278Z" fill="#F9DDBF"/>
<path d="M595.382 491.538C595.382 491.538 550.933 488.407 545.205 495.132C539.169 502.22 548.999 571.939 548.999 571.939C548.999 571.939 561.057 572.334 562.002 568.691C562.002 568.691 559.741 534.936 561.622 529.096C563.503 523.26 562.313 515.18 562.313 515.18C562.313 515.18 585.896 519.197 593.376 517.149C600.86 515.105 595.382 491.538 595.382 491.538Z" fill="#233862"/>
<path d="M606.153 454.307C606.149 454.35 599.6 471.753 596.404 473.609C593.208 475.465 581.643 490.643 579.157 490.38C576.68 490.117 581.721 493.479 581.721 493.479C581.721 493.479 602.287 482.033 603.462 481.365C604.637 480.7 610.833 469.07 611.679 463.166C612.529 457.262 606.153 454.307 606.153 454.307Z" fill="#FFB27D"/>
<path d="M543.661 581.641C543.661 581.641 541.13 589.791 539.006 591.682C536.881 593.573 534.294 598.702 531.999 599.907C529.707 601.112 526.097 602.602 526.97 604.692C527.303 605.484 537.624 605.94 539.181 604.649C540.745 603.359 544.564 598.809 547.685 597.341C550.802 595.869 551.351 592.802 550.324 590.186C549.305 587.566 550.768 579.995 550.768 579.995L543.661 581.641Z" fill="#F9DDBF"/>
<path d="M619.542 446.58C618.591 445.329 642.661 448.414 645.866 462.444C645.866 462.444 664.355 445.816 647.393 431.804C641.523 426.952 640.93 421.773 640.08 417.034C639.231 412.292 633.366 398.675 623.203 405.439C623.203 405.439 618.56 405.464 615.621 408.372C608.941 414.98 601.651 456.981 619.542 446.58Z" fill="#163560"/>
<path d="M614.857 493.998C614.857 493.998 566.527 499.625 562.282 505.255C558.037 510.886 541.365 584.086 541.365 584.086C541.365 584.086 546.297 587.221 550.782 584.285C550.782 584.285 563.559 559.452 569.216 551.654C574.869 543.858 576.977 519.79 577.913 519.541C578.849 519.296 609.133 524.354 619.562 515.216C629.987 506.077 614.857 493.998 614.857 493.998Z" fill="#2E3552"/>
<path d="M641.758 443.946C641.758 443.946 630.226 438.074 615.607 440.768C612.621 441.319 609.93 442.439 607.796 446.456C604.78 452.129 603.367 455.175 603.367 455.175C603.367 455.175 603.658 457.802 607.783 459.896C606.662 464.598 608.813 472.809 606.836 475.998C604.853 479.187 592.574 487.092 591.97 491.485C590.852 499.561 612.96 514.192 619.554 512.628C638.519 508.124 651.386 450.128 641.758 443.946Z" fill="#F9DDBF"/>
<path d="M635.23 427.309C635.23 427.309 637.499 422.209 637.802 418.021C638.015 415.032 635.802 404.279 626.334 406.881C626.334 406.881 623.575 407.496 621.123 409.799C619.169 411.63 616.453 415.419 620.602 424.565L621.741 427.683L635.23 427.309Z" fill="#163560"/>
<path d="M622.255 444.525C621.299 445.676 621.677 449.508 626.159 449.22C629.1 449.028 635.4 444.88 634.81 442.011C634.529 440.65 632.265 437.135 631.734 429.048L631.198 429.219L622.221 432.101C622.221 432.101 622.654 435.357 622.875 438.443C623.062 441.031 622.654 444.049 622.255 444.525Z" fill="#FFB27D"/>
<path d="M622.222 432.102C622.222 432.102 622.653 435.358 622.873 438.444C627.965 437.818 630.296 432.265 631.196 429.219L622.222 432.102Z" fill="#F4A269"/>
<path d="M622.03 436.837C622.03 436.837 633.775 433.464 631.817 425.149C629.867 416.835 630.066 410.799 622.483 412.601C614.9 414.407 614.192 418.022 614.256 420.98C614.32 423.937 618.923 437.502 622.03 436.837Z" fill="#FFB27D"/>
<path d="M617.108 414.037C617.108 414.037 621.052 422.611 628.498 423.531C632.853 424.072 634.045 427.342 634.045 427.342C634.045 427.342 632.734 417.987 630.546 412.26C630.546 412.26 618.427 408.652 617.108 414.037Z" fill="#163560"/>
<path d="M618.456 415.171C618.456 415.171 615.882 418.168 615.09 420.279C613.917 423.407 616.209 429.994 617.158 431.416C617.158 431.416 611.687 420.834 613.511 416.252C615.451 411.393 618.456 415.171 618.456 415.171Z" fill="#163560"/>
<path d="M582.651 492.37C582.651 492.37 580.311 495.2 580.029 495.352C578.482 496.177 576.527 495.697 575.581 495.967C574.639 496.237 574.8 495.569 575.499 495.025C576.194 494.478 577.905 494.691 577.206 494.492C576.508 494.296 572.724 493.493 571.303 493.927C569.046 494.617 567.268 493.81 567.127 493.547C566.985 493.283 572.272 490.333 573.784 490.433C575.295 490.528 579.64 490.291 579.64 490.291L582.651 492.37Z" fill="#FFB27D"/>
<path d="M645.729 449.157C645.729 449.157 660.307 486.701 656.258 492.214C652.239 497.688 624.188 491.041 624.188 491.041L625.055 487.554C625.055 487.554 645.681 486.114 647.151 485.638C649.264 484.956 636.697 458.623 636.697 458.623L645.729 449.157Z" fill="#FFB27D"/>
<path d="M640.299 443.331C640.647 443.338 644.999 444.969 648.133 452.033C651.206 458.971 652.325 462.341 652.325 462.341C652.325 462.341 638.697 474.394 633.278 469.961C627.859 465.526 635.298 443.182 640.299 443.331Z" fill="#F9DDBF"/>
<path d="M627.464 487.383C627.464 487.383 625.12 485.649 624.175 484.699C623.226 483.754 617.736 482.983 617.74 483.615C617.745 484.248 620.937 485.108 621.285 485.741C621.634 486.374 623.587 488.979 625.25 488.976C626.918 488.968 627.464 487.383 627.464 487.383Z" fill="#FFB27D"/>
<path d="M621.064 493.024L614.78 492.004C613.837 491.855 612.886 490.959 612.653 490.006L609.179 476.001C608.946 475.048 609.513 474.401 610.451 474.555L616.74 475.571C617.678 475.724 618.633 476.62 618.866 477.572L622.34 491.578C622.574 492.53 622.002 493.177 621.064 493.024Z" fill="#1F4A91"/>
<path d="M619.757 492.815L613.468 491.794C612.528 491.642 611.579 490.746 611.341 489.793L607.87 475.788C607.633 474.836 608.203 474.189 609.144 474.342L615.429 475.362C616.369 475.515 617.322 476.407 617.555 477.36L621.031 491.365C621.264 492.317 620.693 492.964 619.757 492.815Z" fill="#233862"/>
<path d="M608.946 476.128C608.852 475.73 609.085 475.464 609.474 475.524C609.868 475.588 610.261 475.961 610.359 476.356C610.457 476.75 610.22 477.02 609.831 476.956C609.442 476.892 609.044 476.523 608.946 476.128Z" fill="#1F4A91"/>
<path d="M624.191 491.04C624.191 491.04 619.937 491.108 618.875 490.82C617.805 490.532 615.082 486.672 615.808 485.708C616.266 485.097 618.808 486.188 620.017 486.185C621.229 486.181 624.376 484.183 626.524 488.271C626.768 488.733 624.191 491.04 624.191 491.04Z" fill="#FFB27D"/>
<path d="M642.443 500.272C642.443 500.272 637.868 505.166 618.709 505.87C599.55 506.574 574.571 530.731 574.339 537.552C574.103 544.37 612.915 554.735 613.516 553.758C614.117 552.78 638.126 529.249 638.126 529.249L642.443 500.272Z" fill="#FFA561"/>
<path d="M683.579 563.298C662.267 532.939 618.478 574.325 607.149 573.155C596.734 572.082 627.462 530.589 665.575 524.415C680.98 521.919 677.29 503.755 677.286 503.194C677.713 507.307 678.008 511.778 678.163 516.627C678.717 534.286 681.766 549.997 683.579 563.298Z" fill="#F4904D"/>
<path d="M739.267 606.871L12.5712 606.587C12.084 606.587 11.6859 606.131 11.6859 605.573V605.058C11.6859 604.5 12.0845 604.045 12.5717 604.048L739.267 604.333C739.751 604.333 740.152 604.788 740.152 605.342V605.861C740.152 606.416 739.751 606.871 739.267 606.871Z" fill="#162132"/>
<path d="M439.083 145.308L480.59 155.106L453.981 131.512L452.189 138.341L441.89 139.722L439.083 145.308Z" fill="#95B3EF"/>
<path d="M480.59 155.106L446.862 132.122L412.807 127.729L480.59 155.106Z" fill="#F9DDBF"/>
<path d="M453.981 131.512L480.591 155.106L460.922 119.795L453.981 131.512Z" fill="#F9DDBF"/>
<path d="M178.254 278.596L136.746 288.396L163.356 264.801L165.149 271.629L175.449 273.008L178.254 278.596Z" fill="#95B3EF"/>
<path d="M136.746 288.396L170.476 265.412L204.527 261.019L136.746 288.396Z" fill="#F9DDBF"/>
<path d="M163.356 264.801L136.746 288.396L156.414 253.081L163.356 264.801Z" fill="#F9DDBF"/>
<path d="M246.262 292.281L247.476 290.636C248.575 291.72 249.674 292.338 251.102 292.338C252.348 292.338 253.136 291.684 253.136 290.653C253.136 289.715 252.676 289.21 250.544 288.631C248.099 287.977 246.721 287.152 246.721 284.699C246.721 282.453 248.362 280.9 250.642 280.9C252.316 280.9 253.644 281.479 254.809 282.549L253.727 284.287C252.693 283.409 251.66 282.94 250.609 282.94C249.428 282.94 248.739 283.633 248.739 284.532C248.739 285.542 249.264 285.993 251.462 286.591C253.89 287.266 255.155 288.258 255.155 290.465C255.155 292.918 253.464 294.379 251.052 294.379C249.297 294.379 247.64 293.686 246.262 292.281Z" fill="#739AF0"/>
<path d="M263.242 288.556C263.111 287.095 262.354 285.954 261.043 285.954C259.828 285.954 258.977 287.021 258.797 288.556H263.242ZM256.828 289.249C256.828 286.424 258.582 284.102 261.058 284.102C263.815 284.102 265.211 286.573 265.211 289.417C265.211 289.566 265.195 289.943 265.177 290.053H258.812C259.024 291.663 260.027 292.562 261.305 292.562C262.273 292.562 262.962 292.15 263.653 291.382L264.815 292.562C263.996 293.686 262.865 294.414 261.273 294.414C258.762 294.414 256.828 292.338 256.828 289.249Z" fill="#739AF0"/>
<path d="M272.56 290.053C272.053 289.829 271.345 289.662 270.576 289.662C269.33 289.662 268.592 290.241 268.592 291.233C268.592 292.168 269.33 292.694 270.264 292.694C271.576 292.694 272.56 291.851 272.56 290.614V290.053ZM272.511 294.19V292.975C271.922 293.778 271.018 294.396 269.707 294.396C268.065 294.396 266.623 293.33 266.623 291.308C266.623 289.118 268.115 288.069 270.134 288.069C271.183 288.069 271.856 288.24 272.526 288.482V288.293C272.526 286.928 271.772 286.178 270.395 286.178C269.426 286.178 268.704 286.423 267.919 286.797L267.377 284.98C268.327 284.493 269.264 284.156 270.673 284.156C273.233 284.156 274.479 285.691 274.479 288.332V294.19H272.511Z" fill="#739AF0"/>
<path d="M276.841 284.309H278.828V286.534C279.37 285.055 280.37 284.045 281.894 284.12V286.516H281.782C280.04 286.516 278.828 287.806 278.828 290.43V294.19H276.841V284.309Z" fill="#739AF0"/>
<path d="M282.847 289.267C282.847 286.459 284.75 284.102 287.342 284.102C288.984 284.102 289.999 284.792 290.803 285.805L289.573 287.319C288.965 286.591 288.327 286.086 287.327 286.086C285.881 286.086 284.831 287.508 284.831 289.267C284.831 291.027 285.9 292.449 287.423 292.449C288.358 292.449 289.049 291.944 289.672 291.215L290.869 292.562C290.015 293.646 289.015 294.414 287.327 294.414C284.75 294.414 282.847 292.114 282.847 289.267Z" fill="#739AF0"/>
<path d="M292.691 280.526H294.675V285.841C295.233 284.906 296.037 284.102 297.383 284.102C299.336 284.102 300.467 285.599 300.467 287.902V294.19H298.482V288.574C298.482 287.038 297.809 286.16 296.629 286.16C295.479 286.16 294.675 287.078 294.675 288.613V294.19H292.691V280.526Z" fill="#739AF0"/>
<path d="M302.732 291.627H304.913V294.19H302.732V291.627Z" fill="#739AF0"/>
<path d="M307.143 291.627H309.327V294.19H307.143V291.627Z" fill="#739AF0"/>
<path d="M311.557 291.627H313.738V294.19H311.557V291.627Z" fill="#739AF0"/>
<path d="M315.972 291.627H318.152V294.19H315.972V291.627Z" fill="#739AF0"/>
<path d="M430.732 414.752C430.732 413.412 431.685 412.327 432.857 412.327C434.031 412.327 434.984 413.412 434.984 414.752C434.984 416.088 434.031 417.176 432.857 417.176C431.685 417.176 430.732 416.088 430.732 414.752Z" fill="#D7E5FF"/>
<path d="M529.54 415.402H433.43C433.116 415.402 432.857 415.111 432.857 414.751C432.857 414.389 433.116 414.097 433.43 414.097H529.54C529.854 414.097 530.109 414.389 530.109 414.751C530.109 415.111 529.854 415.402 529.54 415.402Z" fill="#D7E5FF"/>
</svg>
