<svg width="409" height="153" viewBox="0 0 409 153" fill="none" xmlns="http://www.w3.org/2000/svg">
<path d="M38.4214 120.727C33.877 120.727 29.5803 120.328 25.5317 119.531C21.483 118.655 17.9714 117.619 14.9968 116.423C12.0223 115.228 9.83271 114.112 8.42805 113.077V91.6805C12.3941 93.8321 17.393 95.8641 23.4247 97.7766C29.4564 99.6095 36.1491 100.526 43.5029 100.526C46.4774 100.526 48.667 100.167 50.0717 99.45C51.559 98.6532 52.3026 97.2985 52.3026 95.386C52.3026 93.314 50.65 91.6009 47.345 90.2461C44.1226 88.8118 38.9997 87.0587 31.9765 84.9868C26.5232 83.3133 21.8548 81.4804 17.9714 79.4883C14.1706 77.4164 11.2373 74.8665 9.17169 71.8383C7.18866 68.7305 6.19714 64.786 6.19714 60.0047C6.19714 55.064 7.51916 50.6017 10.1632 46.6172C12.8073 42.6328 16.9385 39.4853 22.5571 37.1742C28.1758 34.8632 35.3643 33.7078 44.1226 33.7078C46.7667 33.7078 49.5759 33.8274 52.5505 34.0664C55.6076 34.2259 58.0452 34.4649 59.8629 34.7836L73.868 44.7047L69.0344 59.2875L39.6608 51.518C36.273 51.518 33.7531 52.1953 32.1005 53.55C30.5307 54.9048 29.7456 56.5383 29.7456 58.4508C29.7456 60.7618 31.109 62.5945 33.8356 63.9493C36.5623 65.304 40.487 66.6585 45.6099 68.0133C53.7073 70.1649 59.9868 72.5555 64.4487 75.1852C68.9105 77.8149 72.0504 80.8032 73.868 84.15C75.6857 87.4173 76.5947 91.1228 76.5947 95.2664C76.5947 102.916 73.4137 109.092 67.0514 113.794C60.6891 118.416 51.1457 120.727 38.4214 120.727ZM100.168 59.6461L84.4282 44.3461L100.168 29.1656L115.909 44.3461L100.168 59.6461ZM89.0139 119.531V79.9664L86.4112 70.4039L88.89 63.1125H111.323V119.531H89.0139ZM127.682 119.531V54.1477L125.203 42.075L127.682 34.9032H167.343C173.374 34.9032 178.786 35.8195 183.579 37.6524C188.453 39.4054 192.296 42.4336 195.105 46.7367C197.997 50.9603 199.443 56.8173 199.443 64.3078C199.443 71.7984 197.914 77.7353 194.857 82.118C191.8 86.4211 187.545 89.489 182.091 91.3219C176.721 93.1548 170.565 94.0711 163.624 94.0711H149.991V100.287L151.231 112.24L149.991 119.531H127.682ZM149.991 75.3047H162.137C166.434 75.3047 169.863 74.5476 172.424 73.0336C174.985 71.4398 176.266 68.5314 176.266 64.3078C176.266 61.3595 175.647 59.168 174.407 57.7336C173.168 56.2196 171.433 55.2235 169.202 54.7453C167.053 54.2672 164.533 54.0282 161.641 54.0282H148.752L149.991 75.3047ZM215.553 119.531L213.074 112.359L215.553 100.406V34.9032H276.903L283.1 38.4891L274.92 55.2235L263.765 54.0282H237.862V67.1766H271.202V85.7039H256.577L237.862 84.5086V100.406H274.92L289.669 111.881L282.356 119.531H215.553ZM318.234 119.531V54.0282L293.447 55.2235V34.9032H365.951V55.2235L340.543 54.0282V100.406L341.907 112.359L340.543 119.531H318.234ZM377.106 119.531V54.0282L375.866 42.075L377.106 34.9032H399.539V119.531H377.106Z" fill="#202022"/>
<path d="M343.808 147.762V134.662L343.56 132.271L343.808 130.837H348.294V147.762H343.808ZM351.752 147.762V134.709L351.256 132.271L351.752 130.837H364.022L365.262 131.554L363.626 134.901L361.395 134.662H355.966L356.214 137.291H362.882V140.997H359.883L356.214 140.758V143.961L356.487 146.352L356.214 147.762H351.752ZM375.298 148.001C374.175 148.001 373.085 147.882 372.026 147.643C370.968 147.388 370.011 146.942 369.151 146.304C368.308 145.666 367.639 144.782 367.143 143.65C366.647 142.519 366.399 141.068 366.399 139.299C366.399 137.658 366.647 136.279 367.143 135.164C367.639 134.048 368.301 133.156 369.126 132.486C369.951 131.817 370.854 131.339 371.828 131.052C372.819 130.749 373.811 130.598 374.802 130.598C375.645 130.598 376.463 130.661 377.256 130.789C378.067 130.916 378.652 131.06 379.016 131.219L381.768 133.395L379.537 136.861L375.298 134.757C374.126 134.757 373.134 135.132 372.324 135.881C371.513 136.614 371.109 137.753 371.109 139.299C371.109 140.399 371.307 141.292 371.704 141.977C372.118 142.662 372.678 143.164 373.39 143.483C374.101 143.802 374.909 143.961 375.819 143.961C376.778 143.961 377.596 143.889 378.273 143.746C378.949 143.587 379.544 143.403 380.058 143.196C380.571 142.973 381.056 142.758 381.52 142.551V146.567C380.942 146.918 380.174 147.244 379.215 147.547C378.255 147.85 376.952 148.001 375.298 148.001ZM384.601 147.762L384.105 146.328L384.601 143.937V130.837H396.871L398.11 131.554L396.475 134.901L394.244 134.662H389.063V137.291H395.731V140.997H392.806L389.063 140.758V143.937H396.475L399.424 146.232L397.962 147.762H384.601Z" fill="#202022"/>
</svg>
